<?xml version="1.0"?><svg width="640" height="480" xmlns="http://www.w3.org/2000/svg">
 <title>bike chain link</title>
 <metadata id="metadata5270">image/svg+xmlBike Chain Links</metadata>
 <g>
  <g id="g6827">
   <g id="g6829">
    <g id="g6831">
     <path d="m166.320526,220.634354c0,-21.061188 17.073456,-38.134567 38.134583,-38.134567c21.061127,0 38.134583,17.07338 38.134583,38.134567c0,21.061127 -17.073456,38.134567 -38.134583,38.134567c-21.061127,0 -38.134583,-17.073441 -38.134583,-38.134567z" id="path6833" stroke-miterlimit="4" stroke-linejoin="bevel" stroke-width="1.056338" fill-rule="nonzero" fill="#0c0c0c"/>
     <path d="m280.954102,220.634354l-152.99736,0" id="path6835" stroke-width="0.99999994px" fill-rule="evenodd" fill="#0c0c0c"/>
     <path d="m204.455475,297.133118l0,-152.997574" id="path6837" stroke-width="0.99999994px" fill-rule="evenodd" fill="#0c0c0c"/>
     <path d="m128.012024,220.634354c0,-42.218323 34.224823,-76.4431 76.443085,-76.4431c42.218384,0 76.443085,34.224777 76.443085,76.4431c0,42.218369 -34.224701,76.4431 -76.443085,76.4431c-42.218262,0 -76.443085,-34.224731 -76.443085,-76.4431z" id="path6839" stroke-miterlimit="4" stroke-linejoin="bevel" stroke-width="1.027397" fill-rule="nonzero" fill="#0c0c0c"/>
    </g>
    <g id="g6841">
     <g id="g6843">
      <g id="g6845"/>
      <g id="g6847" stroke-width="2.056338">
       <path d="m411.002411,220.634293c0,-21.124573 17.124847,-38.249496 38.249481,-38.249496c21.124634,0 38.249512,17.124924 38.249512,38.249496c0,21.124634 -17.124878,38.249557 -38.249512,38.249557c-21.124634,0 -38.249481,-17.124924 -38.249481,-38.249557z" id="path6849" stroke-miterlimit="4" stroke-linejoin="bevel" stroke-width="2.385139" fill-rule="nonzero" fill="#0c0c0c"/>
      </g>
     </g>
     <path d="m525.750671,220.634293l-152.997406,0" id="path6851" stroke-miterlimit="4" fill-rule="evenodd" fill="#0c0c0c"/>
     <path d="m449.251892,297.133118l0,-152.997574" id="path6853" stroke-miterlimit="4" fill-rule="evenodd" fill="#0c0c0c"/>
     <path d="m372.752899,220.634354c0,-42.249191 34.249878,-76.498993 76.498993,-76.498993c42.249268,0 76.499023,34.249802 76.499023,76.498993c0,42.249252 -34.249756,76.499008 -76.499023,76.499008c-42.249115,0 -76.498993,-34.249756 -76.498993,-76.499008z" id="path6855" stroke-miterlimit="4" stroke-linejoin="bevel" fill-rule="nonzero" fill="#0c0c0c"/>
    </g>
    <path d="m449.251892,220.633789l-244.796783,-0.001419" id="path6857" stroke-width="1px" fill-rule="evenodd" fill="#0c0c0c"/>
   </g>
   <path id="path6859" d="m449.315155,297.127747c38.734344,0.922119 74.169891,-31.953003 76.243988,-70.63414c3.79657,-37.91188 -25.11618,-75.167099 -62.729156,-81.088928c-21.196625,-4.498062 -42.221771,3.064499 -60.689331,12.877335c-52.549988,23.130981 -115.558685,19.749039 -165.747833,-7.139908c-34.503372,-16.940292 -79.934113,-2.135666 -98.301224,31.492081c-19.386955,32.137741 -9.935272,77.430023 20.654739,99.193756c23.774704,18.395752 58.578751,19.898712 84.148895,5.099945c54.451111,-27.046082 121.65332,-25.362335 175.055206,3.442444c9.827332,4.46582 20.565948,6.770477 31.364716,6.757416zm0,-38.249512c-21.124756,0 -38.249634,-17.124908 -38.249634,-38.249542c0,-21.124573 17.124878,-38.249496 38.249634,-38.249496c21.124634,0 38.249481,17.124863 38.249481,38.249496c0,21.124634 -17.124847,38.249542 -38.249481,38.249542zm-244.796921,-0.127502c-21.061127,0 -38.249496,-17.060913 -38.249496,-38.12204c0,-21.061188 17.18837,-38.122009 38.249496,-38.122009c21.061127,0 38.121994,17.060822 38.121994,38.122009c0,21.061127 -17.060867,38.12204 -38.121994,38.12204z" stroke-miterlimit="4" stroke-linejoin="bevel" stroke-width="0.1" stroke="#000000" fill-rule="nonzero" fill="#0c0c0c"/>
  </g>
  <title>Layer 1</title>
  <circle id="svg_1" r="28.425781" cy="222" cx="204" stroke-width="5" stroke="#ffffff" fill="#fcf9f9"/>
  <circle id="svg_2" r="28.160156" cy="219" cx="449" stroke-linecap="null" stroke-linejoin="null" stroke-dasharray="null" stroke-width="5" stroke="#ffffff" fill="#fcf9f9"/>
 </g>
</svg>